<svg width="54" height="54" viewBox="0 0 54 54" fill="none" xmlns="http://www.w3.org/2000/svg">
<rect width="53.7127" height="53.7127" rx="10" fill="#FFF8E3"/>
<path d="M27.393 12.8909C19.9941 12.8909 13.9648 18.9753 13.9648 26.442V29.1522V34.5726V35.9277C13.9648 38.1637 15.7776 39.9931 17.9933 39.9931H19.3361C21.5518 39.9931 23.3646 38.1637 23.3646 35.9277V31.8624C23.3646 29.6265 21.5518 27.7971 19.3361 27.7971H16.6505V26.442C16.6505 20.4659 21.4712 15.6011 27.393 15.6011C33.3148 15.6011 38.1356 20.4659 38.1356 26.442V27.7971H35.4499C33.2343 27.7971 31.4215 29.6265 31.4215 31.8624V35.9277C31.4215 38.1637 33.2343 39.9931 35.4499 39.9931H36.7927C39.0084 39.9931 40.8212 38.1637 40.8212 35.9277V34.5726V29.1522V26.442C40.8212 18.9753 34.7919 12.8909 27.393 12.8909ZM19.3361 30.5073C20.0747 30.5073 20.6789 31.1171 20.6789 31.8624V35.9277C20.6789 36.673 20.0747 37.2829 19.3361 37.2829H17.9933C17.2547 37.2829 16.6505 36.673 16.6505 35.9277V34.5726V30.5073H19.3361ZM38.1356 35.9277C38.1356 36.673 37.5313 37.2829 36.7927 37.2829H35.4499C34.7114 37.2829 34.1071 36.673 34.1071 35.9277V31.8624C34.1071 31.1171 34.7114 30.5073 35.4499 30.5073H38.1356V34.5726V35.9277Z" fill="#FFC01E"/>
</svg>
