<svg width="54" height="54" viewBox="0 0 54 54" fill="none" xmlns="http://www.w3.org/2000/svg">
<rect width="53.7127" height="53.7127" rx="10" fill="#EDFAE3"/>
<path d="M26.2863 12.8911C18.9382 12.8911 12.8906 19.0088 12.8906 26.4422C12.8906 33.8756 18.9382 39.9933 26.2863 39.9933C33.6344 39.9933 39.747 33.9414 39.747 26.4422C39.747 18.9431 33.6994 12.8911 26.2863 12.8911ZM37.2109 25.2581H32.3338C32.0737 21.8375 30.9683 18.6142 29.0825 15.7855C33.4393 16.9038 36.6907 20.6534 37.2109 25.2581ZM22.7098 27.6921H29.8628C29.5377 31.047 28.3021 34.2045 26.2863 36.9016C24.2704 34.2045 23.0349 31.047 22.7098 27.6921ZM22.7098 25.2581C23.0349 21.9033 24.2704 18.7457 26.2863 16.0487C28.3021 18.7457 29.6027 21.9033 29.8628 25.2581H22.7098ZM23.5551 15.7197C21.6693 18.5484 20.5639 21.7717 20.3038 25.1924H15.4267C15.8819 20.6534 19.1983 16.9038 23.5551 15.7197ZM15.4267 27.6921H20.3038C20.5639 31.1127 21.6693 34.3361 23.5551 37.1647C19.1983 36.0464 15.8819 32.2968 15.4267 27.6921ZM29.0825 37.2305C30.9683 34.4018 32.0737 31.1785 32.3338 27.7579H37.2109C36.6907 32.2968 33.4393 36.0464 29.0825 37.2305Z" fill="#65CE54"/>
</svg>
