<svg width="84" height="84" viewBox="0 0 84 84" fill="none" xmlns="http://www.w3.org/2000/svg">
<g filter="url(#filter0_d_661_837)">
<rect x="15" y="5" width="53.7127" height="53.7127" rx="10" fill="#FF715B"/>
</g>
<path d="M53.6727 44.9835V42.0926C53.6727 40.5592 53.0502 39.0885 51.9421 38.0042C50.8341 36.9199 49.3313 36.3108 47.7643 36.3108H35.9475C34.3805 36.3108 32.8776 36.9199 31.7696 38.0042C30.6616 39.0885 30.0391 40.5592 30.0391 42.0926V44.9835" stroke="white" stroke-width="2" stroke-linecap="round" stroke-linejoin="round"/>
<path d="M41.3186 30.8904C44.5817 30.8904 47.227 28.2209 47.227 24.9279C47.227 21.6349 44.5817 18.9655 41.3186 18.9655C38.0554 18.9655 35.4102 21.6349 35.4102 24.9279C35.4102 28.2209 38.0554 30.8904 41.3186 30.8904Z" stroke="white" stroke-width="2" stroke-linecap="round" stroke-linejoin="round"/>
<defs>
<filter id="filter0_d_661_837" x="0" y="0" width="83.7129" height="83.7126" filterUnits="userSpaceOnUse" color-interpolation-filters="sRGB">
<feFlood flood-opacity="0" result="BackgroundImageFix"/>
<feColorMatrix in="SourceAlpha" type="matrix" values="0 0 0 0 0 0 0 0 0 0 0 0 0 0 0 0 0 0 127 0" result="hardAlpha"/>
<feOffset dy="10"/>
<feGaussianBlur stdDeviation="7.5"/>
<feColorMatrix type="matrix" values="0 0 0 0 1 0 0 0 0 0.443137 0 0 0 0 0.356863 0 0 0 0.25 0"/>
<feBlend mode="normal" in2="BackgroundImageFix" result="effect1_dropShadow_661_837"/>
<feBlend mode="normal" in="SourceGraphic" in2="effect1_dropShadow_661_837" result="shape"/>
</filter>
</defs>
</svg>
