<svg width="196" height="25" viewBox="0 0 196 25" fill="none" xmlns="http://www.w3.org/2000/svg">
<circle cx="12.25" cy="12.25" r="12.25" fill="white"/>
<path d="M17.9316 8.28535L16.083 17.0033C15.9436 17.6186 15.5799 17.7717 15.063 17.4819L12.2464 15.4063L10.8873 16.7134C10.7369 16.8639 10.6111 16.9896 10.3212 16.9896L10.5236 14.121L15.744 9.40381C15.9709 9.20145 15.6947 9.08933 15.3912 9.29169L8.93749 13.3553L6.15911 12.4857C5.55476 12.297 5.54383 11.8814 6.28491 11.5915L17.1523 7.40481C17.6555 7.21612 18.0957 7.51693 17.9316 8.28535Z" fill="#004530"/>
<circle cx="80.8496" cy="12.25" r="12.25" fill="white"/>
<path d="M86.287 9.47688C86.3711 9.19261 86.287 8.9834 85.8822 8.9834H84.5427C84.2016 8.9834 84.0447 9.16305 83.9606 9.36317C83.9606 9.36317 83.2784 11.0255 82.3141 12.1035C82.0026 12.415 81.8593 12.5151 81.6888 12.5151C81.6046 12.5151 81.475 12.415 81.475 12.1307V9.47688C81.475 9.13576 81.3795 8.9834 81.0975 8.9834H78.9917C78.7779 8.9834 78.6506 9.14258 78.6506 9.2904C78.6506 9.61332 79.1327 9.68837 79.1827 10.598V12.5719C79.1827 13.004 79.1054 13.0836 78.9348 13.0836C78.48 13.0836 77.3748 11.4144 76.7199 9.50417C76.588 9.13349 76.4584 8.9834 76.115 8.9834H74.7755C74.3935 8.9834 74.3162 9.16305 74.3162 9.36317C74.3162 9.71793 74.771 11.4804 76.4333 13.809C77.5408 15.3986 79.1008 16.2605 80.5199 16.2605C81.3727 16.2605 81.4773 16.0695 81.4773 15.7397C81.4773 14.2206 81.4 14.0774 81.8275 14.0774C82.0253 14.0774 82.3664 14.1774 83.1624 14.9438C84.072 15.8534 84.2221 16.2605 84.7315 16.2605H86.0709C86.453 16.2605 86.6463 16.0695 86.5349 15.692C86.2802 14.8983 84.5587 13.2655 84.4813 13.1564C84.2835 12.9017 84.3404 12.788 84.4813 12.5605C84.4836 12.5583 86.1187 10.2569 86.287 9.47688Z" fill="#004530"/>
<circle cx="115.15" cy="12.25" r="12.25" fill="white"/>
<path d="M115.56 9.51679C113.822 9.51679 112.42 10.9187 112.42 12.6568C112.42 14.3949 113.822 15.7969 115.56 15.7969C117.298 15.7969 118.7 14.3949 118.7 12.6568C118.7 10.9187 117.298 9.51679 115.56 9.51679ZM115.56 14.6983C114.437 14.6983 113.519 13.7828 113.519 12.6568C113.519 11.5309 114.434 10.6154 115.56 10.6154C116.686 10.6154 117.602 11.5309 117.602 12.6568C117.602 13.7828 116.683 14.6983 115.56 14.6983ZM119.561 9.38835C119.561 9.79554 119.233 10.1208 118.829 10.1208C118.421 10.1208 118.096 9.79281 118.096 9.38835C118.096 8.98389 118.424 8.65594 118.829 8.65594C119.233 8.65594 119.561 8.98389 119.561 9.38835ZM121.641 10.1317C121.594 9.15059 121.37 8.28154 120.652 7.56554C119.935 6.84953 119.066 6.62544 118.085 6.57625C117.074 6.51886 114.043 6.51886 113.032 6.57625C112.054 6.6227 111.185 6.8468 110.466 7.5628C109.747 8.27881 109.526 9.14786 109.477 10.129C109.419 11.1401 109.419 14.1708 109.477 15.182C109.523 16.1631 109.747 17.0321 110.466 17.7481C111.185 18.4641 112.051 18.6882 113.032 18.7374C114.043 18.7948 117.074 18.7948 118.085 18.7374C119.066 18.691 119.935 18.4669 120.652 17.7481C121.368 17.0321 121.592 16.1631 121.641 15.182C121.698 14.1708 121.698 11.1428 121.641 10.1317ZM120.334 16.2669C120.121 16.8026 119.709 17.2152 119.17 17.4311C118.364 17.7509 116.451 17.6771 115.56 17.6771C114.669 17.6771 112.754 17.7481 111.95 17.4311C111.414 17.218 111.002 16.8053 110.786 16.2669C110.466 15.4607 110.54 13.5477 110.54 12.6568C110.54 11.7659 110.469 9.8502 110.786 9.04674C110.999 8.5111 111.412 8.09844 111.95 7.88255C112.756 7.5628 114.669 7.63659 115.56 7.63659C116.451 7.63659 118.367 7.56554 119.17 7.88255C119.706 8.09571 120.119 8.50837 120.334 9.04674C120.654 9.85293 120.58 11.7659 120.58 12.6568C120.58 13.5477 120.654 15.4635 120.334 16.2669Z" fill="#004530"/>
<circle cx="183.75" cy="12.25" r="12.25" fill="white"/>
<path d="M185.476 11.4462C185.512 11.6395 185.538 11.8327 185.538 12.0834C185.538 14.2717 184.071 15.8228 181.862 15.8228C179.746 15.8228 178.033 14.1098 178.033 11.9946C178.033 9.87949 179.746 8.1665 181.862 8.1665C182.896 8.1665 183.757 8.54252 184.426 9.16923L183.387 10.1667C183.105 9.89516 182.608 9.57659 181.862 9.57659C180.556 9.57659 179.491 10.6577 179.491 11.9946C179.491 13.3316 180.556 14.4127 181.862 14.4127C183.376 14.4127 183.945 13.3212 184.034 12.7623H181.862V11.4462H185.476V11.4462ZM189.172 11.5746V10.4634H188.056V11.5746H186.944V12.6911H188.056V13.8024H189.172V12.6911H190.283V11.5746H189.172Z" fill="#004530"/>
<circle cx="46.55" cy="12.25" r="12.25" fill="white"/>
<path d="M45.1188 17.9668V12.4878H43.2837V10.3105H45.1188V8.59507C45.1188 6.73125 46.2577 5.7168 47.9205 5.7168C48.7172 5.7168 49.4015 5.77661 49.6001 5.80293V7.75049H48.4469C47.5425 7.75049 47.3678 8.18115 47.3678 8.8104V10.3105H49.4087L49.1288 12.4878H47.3678V17.9668" fill="#004530"/>
<circle cx="149.45" cy="12.25" r="12.25" fill="white"/>
<path fill-rule="evenodd" clip-rule="evenodd" d="M148.287 5.89883C145.524 6.6667 143.733 9.00988 143.733 11.8556C143.733 12.5945 143.835 13.1888 144.1 13.9889L144.467 15.098L144.1 16.3957C143.898 17.1094 143.733 17.7795 143.733 17.8848C143.733 18.0351 144.063 17.9881 145.269 17.6664L146.804 17.2567L147.58 17.5582C148.672 17.9824 150.341 18.0748 151.399 17.7697C152.621 17.4175 153.468 16.9044 154.288 16.0192C156.049 14.1196 156.474 11.5094 155.394 9.22949C154.927 8.24256 153.757 6.97123 152.876 6.49217C151.515 5.75228 149.672 5.51393 148.287 5.89883ZM152.072 7.26473C153.016 7.69637 153.946 8.63518 154.455 9.6694C154.801 10.3737 154.842 10.6045 154.842 11.8363C154.842 13.0804 154.803 13.2948 154.439 14.0346C153.19 16.5758 150.3 17.603 147.629 16.4551C146.968 16.1709 146.917 16.1686 146.083 16.3846C145.609 16.5073 145.198 16.5856 145.171 16.5585C145.144 16.5315 145.24 16.1206 145.384 15.6457C145.64 14.7991 145.64 14.7738 145.385 14.341C145.241 14.0982 145.021 13.4997 144.896 13.0108C144.628 11.9643 144.698 11.0462 145.136 9.87564C145.497 8.9138 146.649 7.70257 147.644 7.23992C148.972 6.62217 150.688 6.63182 152.072 7.26473ZM147.044 9.4582C146.438 10.45 146.836 11.6879 148.207 13.0756C149.97 14.8607 152.231 15.3244 152.825 14.0226C153.088 13.4462 153.004 13.293 152.215 12.9065L151.451 12.5322L151.04 12.9718C150.761 13.2703 150.552 13.3834 150.389 13.3243C149.852 13.1291 148.947 12.4047 148.616 11.9056L148.264 11.374L148.56 10.9737L148.856 10.5735L148.51 9.79182C148.198 9.0864 148.123 9.01016 147.741 9.01016C147.411 9.01016 147.257 9.10928 147.044 9.4582Z" fill="#004530"/>
</svg>
