<svg width="160" height="31" viewBox="0 0 160 31" fill="none" xmlns="http://www.w3.org/2000/svg">
<ellipse cx="144.4" cy="15.0767" rx="15.3996" ry="15.0767" fill="#004530" fill-opacity="0.1"/>
<path d="M144.914 11.7128C142.729 11.7128 140.967 13.4383 140.967 15.5774C140.967 17.7166 142.729 19.442 144.914 19.442C147.099 19.442 148.862 17.7166 148.862 15.5774C148.862 13.4383 147.099 11.7128 144.914 11.7128ZM144.914 18.0899C143.502 18.0899 142.348 16.9632 142.348 15.5774C142.348 14.1917 143.499 13.0649 144.914 13.0649C146.33 13.0649 147.481 14.1917 147.481 15.5774C147.481 16.9632 146.326 18.0899 144.914 18.0899ZM149.944 11.5547C149.944 12.0559 149.532 12.4561 149.023 12.4561C148.511 12.4561 148.103 12.0525 148.103 11.5547C148.103 11.0569 148.515 10.6533 149.023 10.6533C149.532 10.6533 149.944 11.0569 149.944 11.5547ZM152.558 12.4696C152.5 11.2621 152.218 10.1925 151.315 9.31132C150.415 8.43009 149.322 8.15429 148.089 8.09375C146.818 8.02311 143.008 8.02311 141.737 8.09375C140.507 8.15092 139.414 8.42673 138.511 9.30795C137.607 10.1892 137.329 11.2588 137.267 12.4662C137.195 13.7107 137.195 17.4408 137.267 18.6853C137.325 19.8927 137.607 20.9623 138.511 21.8435C139.414 22.7248 140.503 23.0006 141.737 23.0611C143.008 23.1317 146.818 23.1317 148.089 23.0611C149.322 23.0039 150.415 22.7281 151.315 21.8435C152.215 20.9623 152.497 19.8927 152.558 18.6853C152.631 17.4408 152.631 13.7141 152.558 12.4696ZM150.916 20.0205C150.648 20.6798 150.13 21.1877 149.453 21.4534C148.439 21.8469 146.034 21.7561 144.914 21.7561C143.794 21.7561 141.386 21.8435 140.376 21.4534C139.703 21.191 139.184 20.6831 138.913 20.0205C138.511 19.0283 138.603 16.6739 138.603 15.5774C138.603 14.4809 138.514 12.1232 138.913 11.1343C139.181 10.4751 139.699 9.96719 140.376 9.70148C141.39 9.30795 143.794 9.39876 144.914 9.39876C146.034 9.39876 148.443 9.31131 149.453 9.70148C150.126 9.96382 150.645 10.4717 150.916 11.1343C151.318 12.1265 151.225 14.4809 151.225 15.5774C151.225 16.6739 151.318 19.0317 150.916 20.0205Z" fill="#004530"/>
<ellipse cx="101.4" cy="15.0767" rx="15.3996" ry="15.0767" fill="#004530" fill-opacity="0.1"/>
<path d="M99.5999 22.1124V15.3692H97.293V12.6895H99.5999V10.5782C99.5999 8.2843 101.032 7.03577 103.122 7.03577C104.124 7.03577 104.984 7.10938 105.233 7.14177V9.53873H103.784C102.647 9.53873 102.427 10.0688 102.427 10.8432V12.6895H104.993L104.641 15.3692H102.427V22.1124" fill="#004530"/>
<ellipse cx="58.3996" cy="15.0767" rx="15.3996" ry="15.0767" fill="#004530" fill-opacity="0.1"/>
<path d="M65.5423 10.1975L63.2184 20.9271C63.0431 21.6843 62.5858 21.8728 61.9361 21.5161L58.3953 18.9615L56.6867 20.5703C56.4976 20.7554 56.3395 20.9102 55.9751 20.9102L56.2295 17.3797L62.7921 11.574C63.0774 11.3249 62.7302 11.1869 62.3486 11.436L54.2356 16.4373L50.7429 15.3671C49.9831 15.1348 49.9694 14.6233 50.901 14.2665L64.5625 9.11372C65.1951 8.88149 65.7486 9.25171 65.5423 10.1975Z" fill="#004530"/>
<ellipse cx="15.3996" cy="15.0767" rx="15.3996" ry="15.0767" fill="#004530" fill-opacity="0.1"/>
<path fill-rule="evenodd" clip-rule="evenodd" d="M13.9387 7.25992C10.4656 8.20498 8.21387 11.0889 8.21387 14.5912C8.21387 15.5006 8.34242 16.232 8.67515 17.2168L9.13644 18.5818L8.67515 20.1789C8.42152 21.0573 8.21387 21.882 8.21387 22.0117C8.21387 22.1966 8.62901 22.1387 10.1442 21.7429L12.0743 21.2386L13.05 21.6097C14.4229 22.1318 16.5208 22.2455 17.8511 21.87C19.3871 21.4365 20.4514 20.805 21.4827 19.7155C23.6958 17.3776 24.2303 14.1651 22.873 11.3591C22.2854 10.1445 20.8153 8.57978 19.7078 7.99018C17.9971 7.07957 15.6794 6.78621 13.9387 7.25992ZM18.6973 8.94101C19.8837 9.47224 21.0528 10.6277 21.6919 11.9005C22.1272 12.7674 22.1791 13.0514 22.1791 14.5674C22.1791 16.0987 22.1296 16.3625 21.6727 17.273C20.1023 20.4006 16.4695 21.6648 13.1114 20.252C12.2803 19.9023 12.2168 19.8994 11.1679 20.1653C10.5716 20.3163 10.0559 20.4127 10.0217 20.3793C9.98753 20.346 10.1078 19.8404 10.2887 19.2559C10.6112 18.2139 10.6112 18.1827 10.2899 17.6501C10.1097 17.3513 9.83331 16.6146 9.67579 16.013C9.33837 14.725 9.42684 13.595 9.97799 12.1544C10.4308 10.9706 11.8793 9.47988 13.1301 8.91047C14.7999 8.15018 16.9575 8.16206 18.6973 8.94101ZM12.3755 11.6406C11.6144 12.8612 12.1149 14.3848 13.8378 16.0927C16.054 18.2898 18.8968 18.8604 19.6431 17.2582C19.9736 16.5488 19.8683 16.3603 18.8767 15.8846L17.9163 15.4239L17.3993 15.965C17.0484 16.3323 16.7859 16.4716 16.5815 16.3988C15.9062 16.1586 14.7678 15.267 14.3521 14.6528L13.9094 13.9985L14.2819 13.5058L14.6543 13.0132L14.2194 12.0512C13.8267 11.183 13.7325 11.0892 13.2517 11.0892C12.8371 11.0892 12.6432 11.2112 12.3755 11.6406Z" fill="#004530"/>
</svg>
