<svg width="25" height="24" viewBox="0 0 25 24" fill="none" xmlns="http://www.w3.org/2000/svg">
<path d="M19.0107 22.4745C18.853 22.4751 18.6991 22.426 18.571 22.334L12.5493 17.9683L6.52749 22.334C6.39884 22.4273 6.24385 22.4773 6.08492 22.4767C5.92599 22.4762 5.77137 22.4251 5.6434 22.3308C5.51543 22.2366 5.42075 22.1041 5.37304 21.9525C5.32533 21.8009 5.32707 21.638 5.37801 21.4875L7.7266 14.5312L1.63975 10.357C1.5079 10.2667 1.4084 10.1366 1.35576 9.98566C1.30313 9.83476 1.30013 9.67099 1.3472 9.51827C1.39427 9.36555 1.48895 9.23188 1.6174 9.1368C1.74585 9.04171 1.90134 8.9902 2.06115 8.98978H9.57045L11.8366 2.01566C11.8854 1.86509 11.9807 1.73385 12.1087 1.64077C12.2368 1.54769 12.391 1.49756 12.5493 1.49756C12.7075 1.49756 12.8618 1.54769 12.9898 1.64077C13.1178 1.73385 13.2131 1.86509 13.2619 2.01566L15.5281 8.99212H23.0374C23.1974 8.99204 23.3532 9.0432 23.482 9.1381C23.6109 9.233 23.7059 9.36665 23.7533 9.51949C23.8007 9.67233 23.7979 9.83632 23.7453 9.98745C23.6927 10.1386 23.5931 10.2689 23.4611 10.3593L17.3719 14.5312L19.7191 21.4856C19.7571 21.5982 19.7678 21.7182 19.7503 21.8358C19.7328 21.9533 19.6876 22.065 19.6183 22.1616C19.5491 22.2582 19.4579 22.337 19.3523 22.3914C19.2466 22.4458 19.1295 22.4743 19.0107 22.4745Z" fill="#FFC107"/>
</svg>
